<svg width="22" height="16" viewBox="0 0 22 16" fill="none" xmlns="http://www.w3.org/2000/svg">
<path d="M11 4.81738C10.1575 4.82294 9.3512 5.16006 8.75551 5.75575C8.15982 6.35144 7.8227 7.15777 7.81714 8.00018C7.81714 9.74223 9.25789 11.183 11 11.183C12.7409 11.183 14.1828 9.74223 14.1828 8.00018C14.1828 6.25919 12.7409 4.81738 11 4.81738Z" fill="#767676"/>
<path d="M10.9999 0.573242C2.90178 0.573242 0.467991 7.59343 0.445711 7.66451L0.333252 7.99977L0.444651 8.33502C0.467991 8.4061 2.90178 15.4263 10.9999 15.4263C19.0981 15.4263 21.5318 8.4061 21.5541 8.33502L21.6666 7.99977L21.5552 7.66451C21.5318 7.59343 19.0981 0.573242 10.9999 0.573242ZM10.9999 13.3044C5.32284 13.3044 3.12352 9.22408 2.59093 7.99977C3.12564 6.77121 5.32602 2.69511 10.9999 2.69511C16.677 2.69511 18.8763 6.77545 19.4089 7.99977C18.8742 9.22833 16.6738 13.3044 10.9999 13.3044Z" fill="#767676"/>
</svg>
